<svg width="22" height="22" viewBox="0 0 22 22" fill="none" xmlns="http://www.w3.org/2000/svg">
<path d="M20.6312 7.62905H1.36873C1.2357 7.62905 1.12794 7.52129 1.12794 7.38827V4.69159C1.12848 4.11705 1.3569 3.56618 1.76322 3.15981C2.16954 2.75344 2.72043 2.52507 3.295 2.52454H4.37851C4.44247 2.52454 4.50374 2.5498 4.54889 2.59494C4.59404 2.64008 4.61929 2.70136 4.61929 2.76532V4.37848C4.61929 4.57787 4.78107 4.73965 4.98046 4.73965C5.17986 4.73965 5.34164 4.57787 5.34164 4.37848V2.76532C5.34164 2.6323 5.4494 2.52454 5.58242 2.52454H16.4176C16.4815 2.52454 16.5428 2.5498 16.5879 2.59494C16.6331 2.64008 16.6583 2.70136 16.6583 2.76532V4.37848C16.6583 4.57787 16.8201 4.73965 17.0195 4.73965C17.2189 4.73965 17.3807 4.57787 17.3807 4.37848V2.76532C17.3807 2.6323 17.4884 2.52454 17.6215 2.52454H18.705C19.2795 2.52507 19.8304 2.75349 20.2367 3.15981C20.6431 3.56613 20.8715 4.11702 20.872 4.69159V7.38827C20.872 7.45222 20.8468 7.51349 20.8016 7.55864C20.7565 7.60379 20.6952 7.62905 20.6312 7.62905H20.6312ZM1.60951 7.14749H20.3904V4.69159C20.3899 4.24469 20.2122 3.81632 19.8962 3.50035C19.5802 3.18437 19.1519 3.00669 18.705 3.00615H17.8622V4.37853C17.8622 4.84397 17.4849 5.22127 17.0195 5.22127C16.5541 5.22127 16.1768 4.84397 16.1768 4.37853V3.00615H5.8232V4.37853C5.8232 4.84397 5.4459 5.22127 4.98046 5.22127C4.51503 5.22127 4.13773 4.84397 4.13773 4.37853V3.00615H3.295C2.8481 3.00669 2.41973 3.18432 2.10375 3.50035C1.78778 3.81637 1.6101 4.2447 1.60956 4.69159L1.60951 7.14749Z" fill="#767676" stroke="#767676" stroke-width="0.8"/>
<path d="M4.98049 5.2212C4.51559 5.22013 4.13886 4.84337 4.13776 4.37847V1.97066C4.13776 1.50523 4.51505 1.12793 4.98049 1.12793C5.44593 1.12793 5.82322 1.50523 5.82322 1.97066V4.37847C5.82215 4.84337 5.44539 5.2201 4.98049 5.2212ZM4.98049 1.60949C4.7811 1.60949 4.61932 1.77127 4.61932 1.97066V4.37847C4.61932 4.57786 4.7811 4.73964 4.98049 4.73964C5.17988 4.73964 5.34166 4.57786 5.34166 4.37847V1.97066C5.34112 1.77154 5.17961 1.61003 4.98049 1.60949Z" fill="#767676" stroke="#767676" stroke-width="0.8"/>
<path d="M17.0195 5.2212C16.5543 5.22067 16.1773 4.84364 16.1768 4.37847V1.97066C16.1768 1.50523 16.5541 1.12793 17.0195 1.12793C17.4849 1.12793 17.8622 1.50523 17.8622 1.97066V4.37847C17.8617 4.84364 17.4847 5.22065 17.0195 5.2212ZM17.0195 1.60949C16.8201 1.60949 16.6583 1.77127 16.6583 1.97066V4.37847C16.6583 4.57786 16.8201 4.73964 17.0195 4.73964C17.2189 4.73964 17.3807 4.57786 17.3807 4.37847V1.97066C17.3801 1.77154 17.2186 1.61003 17.0195 1.60949Z" fill="#767676" stroke="#767676" stroke-width="0.8"/>
<path d="M18.705 20.8719H3.295C2.72045 20.8713 2.16959 20.6429 1.76322 20.2366C1.35685 19.8303 1.12848 19.2794 1.12794 18.7048V7.38812C1.12794 7.2551 1.2357 7.14734 1.36873 7.14734H20.6312C20.6951 7.14734 20.7564 7.1726 20.8016 7.21774C20.8467 7.26289 20.872 7.32416 20.872 7.38812V18.7048C20.8714 19.2794 20.643 19.8302 20.2367 20.2366C19.8304 20.643 19.2795 20.8713 18.7049 20.8719H18.705ZM1.60953 7.62893V18.7048C1.61007 19.1517 1.7877 19.5801 2.10373 19.8961C2.41975 20.2121 2.84808 20.3897 3.29497 20.3903H18.7049C19.1518 20.3897 19.5802 20.2121 19.8962 19.8961C20.2122 19.5801 20.3898 19.1517 20.3904 18.7048V7.62893H1.60953Z" fill="#767676" stroke="#767676" stroke-width="0.8"/>
</svg>
