<svg width="20" height="20" viewBox="0 0 20 20" fill="none" xmlns="http://www.w3.org/2000/svg">
<path fill-rule="evenodd" clip-rule="evenodd" d="M13.9021 19.028H6.09199C3.04636 19.028 1 16.8905 1 13.7094V6.35068C1 3.16963 3.04636 1.0321 6.09199 1.0321H9.40139C9.76782 1.0321 10.0652 1.3295 10.0652 1.69593C10.0652 2.06236 9.76782 2.35976 9.40139 2.35976H6.09199C3.80489 2.35976 2.32765 3.92639 2.32765 6.35068V13.7094C2.32765 16.1337 3.80489 17.7003 6.09199 17.7003H13.9021C16.1892 17.7003 17.6674 16.1337 17.6674 13.7094V10.1442C17.6674 9.7778 17.9647 9.4804 18.3312 9.4804C18.6976 9.4804 18.995 9.7778 18.995 10.1442V13.7094C18.995 16.8905 16.9478 19.028 13.9021 19.028Z" fill="#767676"/>
<path d="M13.9021 19.028H6.09199C3.04636 19.028 1 16.8905 1 13.7094V6.35068C1 3.16963 3.04636 1.0321 6.09199 1.0321H9.40139C9.76782 1.0321 10.0652 1.3295 10.0652 1.69593C10.0652 2.06236 9.76782 2.35976 9.40139 2.35976H6.09199C3.80489 2.35976 2.32765 3.92639 2.32765 6.35068V13.7094C2.32765 16.1337 3.80489 17.7003 6.09199 17.7003H13.9021C16.1892 17.7003 17.6674 16.1337 17.6674 13.7094V10.1442C17.6674 9.7778 17.9647 9.4804 18.3312 9.4804C18.6976 9.4804 18.995 9.7778 18.995 10.1442V13.7094C18.995 16.8905 16.9478 19.028 13.9021 19.028" stroke="white" stroke-width="0.3"/>
<path fill-rule="evenodd" clip-rule="evenodd" d="M16.6937 8.00678C16.5237 8.00678 16.3538 7.94216 16.2246 7.81205L12.1832 3.77068C11.9239 3.51134 11.9239 3.09092 12.1832 2.83159C12.4425 2.57225 12.8621 2.57225 13.1214 2.83159L17.1628 6.87385C17.4221 7.13318 17.4221 7.55272 17.1628 7.81205C17.0336 7.94216 16.8636 8.00678 16.6937 8.00678Z" fill="#767676"/>
<path d="M16.6937 8.00678C16.5237 8.00678 16.3538 7.94216 16.2246 7.81205L12.1832 3.77068C11.9239 3.51134 11.9239 3.09092 12.1832 2.83159C12.4425 2.57225 12.8621 2.57225 13.1214 2.83159L17.1628 6.87385C17.4221 7.13318 17.4221 7.55272 17.1628 7.81205C17.0336 7.94216 16.8636 8.00678 16.6937 8.00678" stroke="white" stroke-width="0.3"/>
<path fill-rule="evenodd" clip-rule="evenodd" d="M7.07854 12.8851H9.71349C10.0498 12.8851 10.3649 12.755 10.603 12.5169L17.2492 5.8707C17.5219 5.59809 17.6723 5.2352 17.6723 4.84929C17.6723 4.4625 17.5219 4.09872 17.2492 3.82611L16.1721 2.74894C15.6083 2.1869 14.6913 2.1869 14.1266 2.74894L7.51224 9.36331C7.283 9.59255 7.15289 9.89703 7.14493 10.2201L7.07854 12.8851ZM9.71351 14.2128H6.39792C6.21913 14.2128 6.04742 14.1402 5.92262 14.0119C5.79782 13.8844 5.72966 13.7118 5.73409 13.5322L5.81729 10.1874C5.83411 9.52176 6.10229 8.89599 6.57317 8.42423H6.57405L13.1884 1.80987C14.27 0.730044 16.0287 0.730044 17.1103 1.80987L18.1875 2.88704C18.7123 3.41102 19.0009 4.10759 19 4.84931C19 5.59102 18.7115 6.28671 18.1875 6.80981L11.5412 13.456C11.0536 13.9437 10.4039 14.2128 9.71351 14.2128Z" fill="#767676"/>
<path d="M7.07854 12.8851L6.92859 12.8814L6.92476 13.0351H7.07854V12.8851ZM10.603 12.5169L10.497 12.4109L10.603 12.5169ZM17.2492 5.8707L17.3553 5.97676L17.2492 5.8707ZM17.2492 3.82611L17.3553 3.72005L17.2492 3.82611ZM16.1721 2.74894L16.2781 2.64288L16.278 2.64271L16.1721 2.74894ZM14.1266 2.74894L14.0208 2.64263L14.0205 2.64288L14.1266 2.74894ZM7.51224 9.36331L7.61831 9.46938L7.51224 9.36331ZM7.14493 10.2201L7.29488 10.2238L7.29488 10.2238L7.14493 10.2201ZM5.92262 14.0119L6.03016 13.9073L6.02979 13.9069L5.92262 14.0119ZM5.73409 13.5322L5.58414 13.5284L5.58414 13.5285L5.73409 13.5322ZM5.81729 10.1874L5.66734 10.1836L5.66734 10.1836L5.81729 10.1874ZM6.57317 8.42423V8.27423H6.51095L6.467 8.31827L6.57317 8.42423ZM6.57405 8.42423V8.57423H6.63618L6.68012 8.5303L6.57405 8.42423ZM13.1884 1.80987L13.0824 1.70372L13.0824 1.7038L13.1884 1.80987ZM17.1103 1.80987L17.2164 1.7038L17.2163 1.70372L17.1103 1.80987ZM18.1875 2.88704L18.0814 2.9931L18.0815 2.99319L18.1875 2.88704ZM19 4.84931L18.85 4.84913V4.84931H19ZM18.1875 6.80981L18.0815 6.70365L18.0814 6.70374L18.1875 6.80981ZM11.5412 13.456L11.4352 13.35L11.5412 13.456ZM7.07854 13.0351H9.71349V12.7351H7.07854V13.0351ZM9.71349 13.0351C10.0895 13.0351 10.4428 12.8893 10.7091 12.623L10.497 12.4109C10.2871 12.6208 10.0101 12.7351 9.71349 12.7351V13.0351ZM10.7091 12.623L17.3553 5.97676L17.1432 5.76463L10.497 12.4109L10.7091 12.623ZM17.3553 5.97676C17.656 5.67604 17.8223 5.275 17.8223 4.84929H17.5223C17.5223 5.19539 17.3877 5.52014 17.1432 5.76463L17.3553 5.97676ZM17.8223 4.84929C17.8223 4.42285 17.6561 4.02088 17.3553 3.72005L17.1432 3.93218C17.3876 4.17657 17.5223 4.50216 17.5223 4.84929H17.8223ZM17.3553 3.72005L16.2781 2.64288L16.066 2.85501L17.1432 3.93218L17.3553 3.72005ZM16.278 2.64271C15.6556 2.02227 14.644 2.02239 14.0208 2.64263L14.2324 2.85526C14.7386 2.35142 15.561 2.35154 16.0662 2.85518L16.278 2.64271ZM14.0205 2.64288L7.40618 9.25725L7.61831 9.46938L14.2327 2.85501L14.0205 2.64288ZM7.40618 9.25725C7.14966 9.51376 7.00388 9.85491 6.99497 10.2164L7.29488 10.2238C7.3019 9.93915 7.41634 9.67134 7.61831 9.46938L7.40618 9.25725ZM6.99497 10.2164L6.92859 12.8814L7.2285 12.8889L7.29488 10.2238L6.99497 10.2164ZM9.71351 14.0628H6.39792V14.3628H9.71351V14.0628ZM6.39792 14.0628C6.25969 14.0628 6.12675 14.0066 6.03016 13.9073L5.81508 14.1165C5.96808 14.2738 6.17856 14.3628 6.39792 14.3628V14.0628ZM6.02979 13.9069C5.93338 13.8085 5.88061 13.6751 5.88404 13.5359L5.58414 13.5285C5.57871 13.7486 5.66226 13.9604 5.81544 14.1168L6.02979 13.9069ZM5.88404 13.5359L5.96724 10.1911L5.66734 10.1836L5.58414 13.5284L5.88404 13.5359ZM5.96724 10.1911C5.98309 9.56399 6.23558 8.97478 6.67933 8.5302L6.467 8.31827C5.969 8.8172 5.68513 9.47954 5.66734 10.1836L5.96724 10.1911ZM6.57317 8.57423H6.57405V8.27423H6.57317V8.57423ZM6.68012 8.5303L13.2945 1.91593L13.0824 1.7038L6.46799 8.31817L6.68012 8.5303ZM13.2944 1.91602C14.3174 0.89466 15.9813 0.89466 17.0043 1.91602L17.2163 1.70372C16.0761 0.565428 14.2226 0.565428 13.0824 1.70372L13.2944 1.91602ZM17.0042 1.91593L18.0814 2.9931L18.2935 2.78097L17.2164 1.7038L17.0042 1.91593ZM18.0815 2.99319C18.5781 3.48901 18.8508 4.14732 18.85 4.84913L19.15 4.84949C19.1509 4.06786 18.8465 3.33303 18.2935 2.78088L18.0815 2.99319ZM18.85 4.84931C18.85 5.55123 18.5773 6.20872 18.0815 6.70365L18.2935 6.91596C18.8456 6.36471 19.15 5.63082 19.15 4.84931H18.85ZM18.0814 6.70374L11.4352 13.35L11.6473 13.5621L18.2935 6.91587L18.0814 6.70374ZM11.4352 13.35C10.9756 13.8095 10.3641 14.0628 9.71351 14.0628V14.3628C10.4436 14.3628 11.1315 14.0779 11.6473 13.5621L11.4352 13.35Z" fill="white"/>
</svg>
