<svg width="22" height="22" viewBox="0 0 22 22" fill="none" xmlns="http://www.w3.org/2000/svg">
<path d="M16.9975 6.16C16.9375 6.15 16.8675 6.15 16.8075 6.16C15.4275 6.11 14.3275 4.98 14.3275 3.58C14.3275 2.15 15.4775 1 16.9075 1C18.3375 1 19.4875 2.16 19.4875 3.58C19.4775 4.98 18.3775 6.11 16.9975 6.16Z" stroke="#525252" stroke-width="1.5" stroke-linecap="round" stroke-linejoin="round"/>
<path d="M15.9675 13.44C17.3375 13.67 18.8475 13.43 19.9075 12.72C21.3175 11.78 21.3175 10.24 19.9075 9.30004C18.8375 8.59004 17.3075 8.35003 15.9375 8.59003" stroke="#525252" stroke-width="1.5" stroke-linecap="round" stroke-linejoin="round"/>
<path d="M4.96749 6.16C5.02749 6.15 5.09749 6.15 5.15749 6.16C6.53749 6.11 7.63749 4.98 7.63749 3.58C7.63749 2.15 6.4875 1 5.0575 1C3.6275 1 2.47749 2.16 2.47749 3.58C2.48749 4.98 3.58749 6.11 4.96749 6.16Z" stroke="#525252" stroke-width="1.5" stroke-linecap="round" stroke-linejoin="round"/>
<path d="M5.9975 13.44C4.6275 13.67 3.1175 13.43 2.0575 12.72C0.6475 11.78 0.6475 10.24 2.0575 9.30004C3.1275 8.59004 4.6575 8.35003 6.0275 8.59003" stroke="#525252" stroke-width="1.5" stroke-linecap="round" stroke-linejoin="round"/>
<path d="M10.9975 13.63C10.9375 13.62 10.8675 13.62 10.8075 13.63C9.42751 13.58 8.32751 12.45 8.32751 11.05C8.32751 9.61997 9.47751 8.46997 10.9075 8.46997C12.3375 8.46997 13.4875 9.62997 13.4875 11.05C13.4775 12.45 12.3775 13.59 10.9975 13.63Z" stroke="#525252" stroke-width="1.5" stroke-linecap="round" stroke-linejoin="round"/>
<path d="M8.0875 16.78C6.6775 17.72 6.6775 19.26 8.0875 20.2C9.6875 21.27 12.3075 21.27 13.9075 20.2C15.3175 19.26 15.3175 17.72 13.9075 16.78C12.3175 15.72 9.6875 15.72 8.0875 16.78Z" stroke="#525252" stroke-width="1.5" stroke-linecap="round" stroke-linejoin="round"/>
</svg>
