<svg width="22" height="22" viewBox="0 0 22 22" fill="none" xmlns="http://www.w3.org/2000/svg">
<path d="M1.62829 6.26575C0.879506 7.74474 0.5 9.3374 0.5 10.9998C0.5 12.6745 0.885359 14.2786 1.64581 15.7681C3.45189 19.3036 7.03634 21.5 11 21.5C14.9743 21.5 18.5629 19.2954 20.3652 15.747C21.118 14.2637 21.5 12.6666 21.5 11.0002C21.5 9.32985 21.1165 7.72982 20.3606 6.24467C18.5565 2.70124 14.9696 0.5 10.9998 0.5C7.01944 0.5 3.42835 2.70892 1.62829 6.26575ZM9.65307 1.10191C9.63386 1.11991 9.61448 1.13826 9.59493 1.1573C9.51878 1.2319 9.44435 1.31422 9.36975 1.40168L9.30132 1.48571C9.24833 1.55122 9.19637 1.61914 9.13788 1.70008L9.07408 1.78995C9.01801 1.87192 8.96244 1.95801 8.90807 2.04685L8.86383 2.11853C8.79574 2.23309 8.72937 2.35365 8.66437 2.47918L8.61601 2.57677C8.56713 2.67452 8.51877 2.77467 8.47177 2.87877C8.45102 2.92387 8.43079 2.96966 8.41106 3.01597C8.36682 3.11783 8.32325 3.22313 8.28038 3.33066L8.22996 3.45825C8.17234 3.60882 8.11591 3.76351 8.06172 3.92489L8.0456 3.97428C7.9974 4.11971 7.95024 4.2696 7.90497 4.42328L7.85832 4.58534C7.82299 4.7095 7.78869 4.83606 7.75508 4.96572L7.711 5.13807C7.67327 5.29105 7.63674 5.44711 7.60192 5.60542L7.58015 5.70214C7.55048 5.84088 7.52149 5.98202 7.49388 6.12522L4.36813 6.12642L2.28322 6.12573C3.82482 3.36776 6.54392 1.51898 9.65307 1.10191ZM7.9247 6.63717C9.94841 6.63545 12.0527 6.63236 14.0761 6.62893C14.0953 6.74486 14.113 6.86251 14.1305 6.97981L14.1747 7.26621C14.1898 7.36019 14.2049 7.45416 14.2174 7.54969C14.2399 7.72787 14.2584 7.90948 14.2767 8.09127L14.3095 8.40031C14.3195 8.48914 14.3297 8.57798 14.3375 8.66853C14.3572 8.90262 14.3702 9.14149 14.3833 9.38023L14.3971 9.60438C14.4023 9.67589 14.4071 9.74758 14.4102 9.82029C14.4266 10.2183 14.435 10.6152 14.435 11.0002C14.435 11.3927 14.4266 11.791 14.4102 12.1842C14.4069 12.2648 14.4013 12.3442 14.3956 12.4236L14.3774 12.7191C14.3659 12.9268 14.3544 13.1343 14.3369 13.3379C14.3285 13.4359 14.3176 13.5325 14.3068 13.6291L14.2725 13.9518C14.255 14.1221 14.2376 14.2924 14.2159 14.4596C14.2025 14.5609 14.1867 14.6606 14.1706 14.76L14.1291 15.0267C14.1109 15.1473 14.0927 15.268 14.0727 15.3874C12.0522 15.391 9.95135 15.3937 7.93005 15.3958C7.91102 15.2812 7.89335 15.1658 7.8762 15.0499L7.83264 14.769C7.81652 14.6693 7.8004 14.5697 7.78702 14.4678C7.76266 14.2836 7.7438 14.0957 7.72476 13.9077L7.69372 13.6184C7.68326 13.5277 7.67297 13.4371 7.66508 13.3447C7.6457 13.114 7.63284 12.8786 7.6198 12.6433L7.6054 12.4116C7.60008 12.3373 7.59494 12.2631 7.59185 12.1874C7.57539 11.7935 7.56698 11.3946 7.56698 11.0012C7.56698 10.6134 7.57521 10.2173 7.59151 9.82387C7.59477 9.74584 7.60025 9.66919 7.60557 9.59236L7.62101 9.3442C7.63335 9.12006 7.64553 8.89574 7.66405 8.67557C7.67194 8.58279 7.68223 8.49172 7.69252 8.40083L7.72476 8.09728C7.74294 7.91704 7.76112 7.73646 7.78393 7.56C7.79697 7.46019 7.81257 7.36261 7.82818 7.26469L7.86934 6.99801C7.887 6.87694 7.90515 6.75619 7.9247 6.63717ZM1.01201 10.9998C1.01201 9.47161 1.34952 8.00447 2.01544 6.63769C2.82577 6.63838 3.697 6.63872 4.61025 6.63872L7.40264 6.63769C7.39183 6.70766 7.38188 6.77797 7.37159 6.8488L7.31963 7.19522C7.30316 7.29915 7.28687 7.40325 7.27298 7.50923C7.25 7.68587 7.23148 7.86628 7.2133 8.04651L7.1814 8.3492C7.1706 8.44592 7.15996 8.54299 7.15139 8.64211C7.13115 8.88238 7.11777 9.12658 7.10457 9.37099L7.09205 9.57489C7.08673 9.65172 7.08159 9.72855 7.07816 9.80658C7.06169 10.2051 7.05329 10.6066 7.05329 10.9997C7.05329 11.3943 7.06169 11.799 7.07867 12.2024C7.08193 12.2809 7.08742 12.3581 7.09273 12.4351L7.10611 12.6474C7.11949 12.8918 7.13304 13.136 7.15327 13.3761C7.16168 13.477 7.173 13.5759 7.18431 13.6747L7.2145 13.9565C7.23371 14.1444 7.25274 14.3324 7.27693 14.5168C7.29133 14.6251 7.30814 14.7311 7.32512 14.8371L7.37537 15.1688C7.38634 15.2444 7.39715 15.3202 7.40898 15.3955L4.53757 15.3965L2.03315 15.3953C1.35536 14.0198 1.01201 12.5412 1.01201 10.9998ZM2.30204 15.9082L4.53636 15.9088L7.50006 15.9076C7.52767 16.0498 7.55665 16.1896 7.58632 16.3269L7.60827 16.4245C7.64309 16.5814 7.67945 16.7361 7.71718 16.887L7.76228 17.0627C7.79504 17.1892 7.82916 17.3134 7.86398 17.4353L7.91217 17.601C7.95676 17.7503 8.00255 17.8963 8.04989 18.0371L8.06892 18.0968C8.12278 18.2551 8.17834 18.4072 8.23511 18.5555L8.28965 18.6922C8.33081 18.7954 8.37282 18.8966 8.4157 18.9944C8.43697 19.0426 8.45789 19.0904 8.47915 19.1376C8.52495 19.2379 8.57194 19.3348 8.61893 19.4293L8.67089 19.533C8.7352 19.657 8.80106 19.7754 8.86777 19.8885L8.91819 19.9691C8.97067 20.0544 9.02401 20.1367 9.07752 20.2147L9.15058 20.3176C9.201 20.3876 9.25193 20.4541 9.30373 20.5176L9.32277 20.5411C9.34026 20.5629 9.35758 20.5846 9.37473 20.604C9.44899 20.6911 9.52428 20.7741 9.61208 20.8584C9.62597 20.8717 9.6397 20.8849 9.65376 20.8978C6.55888 20.4823 3.84702 18.646 2.30204 15.9082ZM12.2059 20.3019L12.1461 20.3699C12.1274 20.3913 12.1088 20.4131 12.0907 20.4321C12.0591 20.4642 12.0274 20.4923 11.9957 20.5208L11.9247 20.5856C11.9072 20.6021 11.89 20.6184 11.8727 20.6328C11.8394 20.6597 11.8061 20.6821 11.7725 20.705L11.7086 20.7501C11.6906 20.7631 11.6727 20.7766 11.6542 20.7878C11.6201 20.8085 11.5858 20.8247 11.5515 20.8411L11.4784 20.8778C11.4638 20.8857 11.4494 20.8938 11.4357 20.8993C11.393 20.9164 11.3494 20.9277 11.2892 20.9435C11.2747 20.9473 11.2603 20.9519 11.246 20.9569C11.2361 20.9601 11.2261 20.9637 11.2176 20.9656C11.0713 20.9953 10.9293 20.9953 10.783 20.9656C10.7722 20.9636 10.7615 20.9594 10.7507 20.9557L10.6821 20.9354C10.6435 20.925 10.6046 20.915 10.5659 20.8993C10.5497 20.8929 10.5341 20.8838 10.518 20.8754L10.4458 20.8392C10.4131 20.8236 10.38 20.8082 10.3472 20.7883C10.3297 20.7775 10.3126 20.7648 10.2954 20.7521L10.2198 20.6988C10.1896 20.678 10.1591 20.6578 10.1284 20.6324C10.1081 20.6163 10.0888 20.5976 10.0687 20.5789L9.99665 20.513C9.96819 20.4875 9.9392 20.4621 9.91142 20.4335C9.8905 20.412 9.86974 20.3879 9.84916 20.364L9.78022 20.2862C9.75209 20.2549 9.7238 20.2237 9.69653 20.1901C9.67664 20.1651 9.65691 20.1378 9.63719 20.1105L9.56773 20.0167C9.54064 19.9804 9.51337 19.9442 9.48661 19.9046C9.46432 19.8715 9.44237 19.836 9.42024 19.8007L9.36536 19.7139C9.33741 19.6698 9.30929 19.6261 9.28185 19.5793C9.25852 19.5393 9.23571 19.4966 9.21324 19.4541L9.16351 19.3621C9.13693 19.3134 9.11018 19.2651 9.08445 19.2133C9.06369 19.1723 9.0438 19.1292 9.02374 19.086L8.96491 18.9608C8.94159 18.9115 8.9181 18.8621 8.89546 18.8103C8.87625 18.7667 8.85773 18.7211 8.83903 18.6756L8.78209 18.5374C8.75963 18.4825 8.73682 18.4275 8.71469 18.3704C8.69325 18.314 8.67216 18.2557 8.65141 18.1973L8.61728 18.1029C8.59276 18.0349 8.56789 17.9669 8.54405 17.8964C8.52364 17.8355 8.50357 17.7719 8.48385 17.7086L8.44595 17.588C8.42503 17.5222 8.40428 17.4563 8.38421 17.3881C8.36569 17.3253 8.34785 17.2605 8.33036 17.1958L8.30086 17.0888C8.27908 17.0094 8.25713 16.9303 8.23637 16.8489C8.21768 16.7753 8.19967 16.7004 8.18201 16.6253L8.15217 16.4983C8.13502 16.4256 8.11752 16.3531 8.10123 16.2788C8.08511 16.2063 8.07002 16.1324 8.05492 16.0581L8.03109 15.9406C8.02886 15.9297 8.02646 15.9187 8.0244 15.9075C9.9848 15.9055 12.0174 15.9027 13.9773 15.8993C13.971 15.9316 13.9643 15.9638 13.9576 15.996L13.942 16.0718C13.9286 16.1372 13.9154 16.2025 13.9014 16.2665C13.8804 16.3618 13.8583 16.4544 13.8364 16.5469L13.8118 16.6503C13.7968 16.7136 13.7818 16.7769 13.7662 16.8383C13.746 16.9177 13.7247 16.9947 13.7035 17.0718L13.6693 17.1955C13.6523 17.2574 13.6355 17.3191 13.6179 17.3797C13.5964 17.4532 13.5738 17.5241 13.5513 17.5951L13.5136 17.7151C13.4954 17.7738 13.4772 17.8321 13.4582 17.8885C13.4333 17.9626 13.4078 18.0332 13.3819 18.1044L13.3392 18.2229C13.3219 18.2706 13.3052 18.3179 13.2872 18.364C13.2603 18.4345 13.2322 18.5017 13.2042 18.5691L13.1658 18.6626C13.1464 18.7105 13.1269 18.7585 13.107 18.8039C13.0763 18.8741 13.0446 18.9406 13.0127 19.0073L13.0017 19.0303L12.9808 19.0749C12.9598 19.12 12.9387 19.1653 12.9173 19.2081C12.8888 19.2647 12.8597 19.3181 12.831 19.3711L12.7777 19.4693C12.7587 19.505 12.7398 19.5403 12.7196 19.5748C12.692 19.6226 12.6635 19.6676 12.635 19.712L12.5717 19.8132C12.553 19.8434 12.5343 19.8734 12.5157 19.9015C12.4856 19.9456 12.4553 19.9866 12.4248 20.0272L12.362 20.1123C12.3433 20.1383 12.3246 20.1642 12.3054 20.1879C12.2726 20.2287 12.2392 20.2652 12.2059 20.3019ZM12.3447 20.8984C12.4407 20.8091 12.5355 20.7096 12.6275 20.6015C12.6436 20.5825 12.6597 20.5624 12.6757 20.5424L12.6931 20.5204C12.747 20.4544 12.8 20.3853 12.8521 20.3127C12.8751 20.281 12.8984 20.2489 12.9207 20.2162C12.9773 20.134 13.0329 20.0474 13.0879 19.9583L13.1315 19.8888C13.1999 19.7741 13.2665 19.6532 13.3315 19.5276L13.3766 19.4367C13.4268 19.3371 13.4762 19.2347 13.5241 19.1289C13.5438 19.0857 13.5632 19.0416 13.5827 18.9972C13.6283 18.8934 13.6729 18.7861 13.7161 18.6769L13.7643 18.556C13.8226 18.4045 13.8794 18.2488 13.9326 18.0904L13.9444 18.0545C13.9948 17.9039 14.0437 17.7479 14.0907 17.5892L14.1344 17.4373C14.1708 17.3106 14.206 17.1813 14.2403 17.0494L14.283 16.8829C14.3214 16.7287 14.3582 16.5714 14.3944 16.4099L14.4148 16.3192C14.4449 16.1806 14.4737 16.0403 14.5014 15.8973C16.1268 15.8945 17.6872 15.8915 19.1 15.888L19.709 15.8868C18.1663 18.6378 15.4495 20.4822 12.3447 20.8984ZM20.9885 10.9997C20.988 12.533 20.6481 14.0044 19.9782 15.3748L14.5938 15.3856C14.6056 15.3093 14.6168 15.2321 14.6279 15.1551L14.6778 14.8243C14.6943 14.7206 14.7106 14.6172 14.7245 14.5113C14.7488 14.3261 14.7677 14.1377 14.7869 13.9487L14.8181 13.6559C14.8289 13.562 14.8394 13.468 14.8476 13.3716C14.868 13.1317 14.8814 12.8873 14.8948 12.6427L14.9078 12.4337C14.9131 12.3562 14.9186 12.2788 14.9217 12.1996C14.9383 11.7969 14.9471 11.3934 14.9471 10.9995C14.9471 10.6035 14.9387 10.2011 14.922 9.8043C14.9188 9.71923 14.9128 9.63572 14.9071 9.55237L14.892 9.30627C14.8797 9.08195 14.8671 8.85781 14.8488 8.63763C14.8404 8.53782 14.8296 8.4399 14.8186 8.3418L14.7869 8.04289C14.7687 7.86162 14.7502 7.68018 14.7272 7.50284C14.7133 7.39634 14.6967 7.29173 14.6804 7.18763L14.63 6.85133C14.6192 6.77673 14.6087 6.70196 14.5972 6.62804L19.9754 6.61672C20.6474 7.98956 20.9885 9.46376 20.9885 10.9997ZM19.7055 6.10537L14.5046 6.11583C14.477 5.97298 14.448 5.83252 14.4183 5.69447L14.3971 5.601C14.3617 5.44014 14.325 5.28322 14.2866 5.12852L14.2436 4.96046C14.2095 4.82926 14.1745 4.70081 14.1383 4.57356L14.0942 4.41973C14.047 4.26093 13.9987 4.10573 13.9488 3.95603L13.9375 3.92088C13.8829 3.75881 13.8258 3.60275 13.7677 3.45046L13.7198 3.33144C13.6761 3.22083 13.6315 3.11296 13.5859 3.00817L13.5754 2.98433L13.5277 2.87749C13.4794 2.77065 13.43 2.66793 13.3792 2.56692L13.335 2.47808C13.2695 2.35135 13.2022 2.23045 13.134 2.11486L13.0915 2.04695C13.0361 1.95657 12.9803 1.86996 12.9232 1.78644C12.9004 1.75335 12.8771 1.72145 12.8546 1.69024C12.8026 1.61752 12.7493 1.54841 12.6958 1.48272L12.6287 1.40024C12.5541 1.31243 12.4783 1.22891 12.4 1.15226C12.3823 1.13511 12.3646 1.11813 12.3466 1.10184C15.4479 1.51806 18.1618 3.35934 19.7055 6.10537ZM11.2482 1.04338L11.3122 1.06242C11.3534 1.0734 11.3949 1.0842 11.4352 1.10032C11.4501 1.10649 11.4647 1.11473 11.4793 1.12227L11.5523 1.15914C11.5864 1.17526 11.6207 1.19138 11.6542 1.21196C11.6718 1.22277 11.6893 1.2358 11.7067 1.24866L11.7833 1.30251C11.8139 1.32344 11.8442 1.34402 11.8742 1.36837C11.8936 1.38432 11.9126 1.4025 11.9318 1.42033L12.0013 1.4843C12.0318 1.51122 12.062 1.53832 12.0917 1.56885C12.1116 1.5896 12.1313 1.61241 12.151 1.63538L12.2184 1.71153C12.2479 1.74411 12.2772 1.77687 12.3067 1.81374C12.3275 1.83929 12.3474 1.86725 12.3675 1.89486L12.4319 1.98266C12.4604 2.02091 12.489 2.05898 12.517 2.10014C12.5378 2.13084 12.558 2.16359 12.5782 2.19618L12.6369 2.28998C12.6653 2.33474 12.694 2.37985 12.7219 2.42752C12.7417 2.46182 12.761 2.49852 12.7806 2.53488L12.8326 2.63091C12.8617 2.68442 12.8912 2.73793 12.9197 2.79504C12.9411 2.83808 12.9624 2.8837 12.9837 2.92897L13.0282 3.02398C13.0557 3.08178 13.0831 3.13974 13.1097 3.20062C13.1287 3.24384 13.1471 3.28946 13.1656 3.3349L13.2123 3.44843C13.2387 3.51223 13.2651 3.57602 13.2903 3.64257C13.3088 3.69093 13.327 3.74186 13.3448 3.79262L13.3826 3.89706C13.409 3.97012 13.4355 4.04335 13.4611 4.11984C13.4776 4.1682 13.4932 4.21845 13.5088 4.26869L13.5554 4.41704C13.5774 4.48701 13.5995 4.55732 13.6209 4.63038C13.6384 4.6892 13.6547 4.74991 13.6714 4.81062L13.7045 4.93118C13.7262 5.01058 13.7482 5.09016 13.7689 5.17265C13.7849 5.23507 13.8 5.29921 13.8151 5.36318L13.8326 5.43692C13.8571 5.5393 13.8815 5.64134 13.9046 5.7463C13.9207 5.82107 13.9363 5.89773 13.9518 5.97421L13.9799 6.11535L13.7348 6.11552C12.2889 6.1181 10.8088 6.12015 9.34802 6.1217L8.01838 6.12273L8.04805 5.9737C8.06349 5.89859 8.07858 5.8233 8.0947 5.74955C8.11442 5.65917 8.13535 5.57103 8.15644 5.48322L8.17616 5.40005C8.19365 5.32493 8.21132 5.24965 8.22967 5.17693C8.25214 5.08724 8.27632 5.00081 8.30016 4.91386L8.32571 4.82057C8.34286 4.75763 8.35984 4.69452 8.37751 4.63381C8.39997 4.55681 8.42364 4.48221 8.44696 4.40795L8.48178 4.29682C8.49996 4.23817 8.51813 4.17952 8.53734 4.12293C8.56187 4.04867 8.58776 3.97767 8.61349 3.90633L8.65602 3.78834C8.673 3.74015 8.69015 3.69231 8.70782 3.646C8.73731 3.569 8.7675 3.49594 8.80694 3.40162L8.82941 3.34606C8.84879 3.29787 8.86834 3.24951 8.88858 3.20337C8.91705 3.13855 8.9462 3.07732 8.97519 3.01593L9.02543 2.90909C9.0431 2.87119 9.06059 2.83346 9.07826 2.79796C9.10878 2.7376 9.13965 2.68066 9.1707 2.6239L9.22094 2.53095C9.23912 2.49665 9.2573 2.46201 9.276 2.42976C9.30549 2.379 9.33534 2.33167 9.36535 2.28451L9.42349 2.19173C9.44269 2.16069 9.46173 2.12982 9.4806 2.10135C9.51164 2.05573 9.54302 2.01371 9.57458 1.97153L9.63597 1.88801C9.6545 1.86263 9.67268 1.83708 9.69154 1.81376C9.72309 1.77431 9.75499 1.73898 9.78706 1.70331L9.85241 1.62923C9.87041 1.60848 9.88825 1.58773 9.90643 1.56886C9.93867 1.53559 9.97177 1.50644 10.0045 1.47711L10.07 1.41692C10.0881 1.39994 10.1057 1.38279 10.1246 1.36753C10.1577 1.3406 10.1915 1.31779 10.2249 1.29482L10.2904 1.24817C10.3081 1.23479 10.3256 1.22159 10.3438 1.21044C10.3775 1.18969 10.4122 1.17357 10.4465 1.15711L10.5197 1.12041C10.5343 1.11269 10.5487 1.10446 10.5628 1.09897C10.6044 1.08199 10.6465 1.07136 10.7092 1.05473C10.7233 1.05095 10.7374 1.04632 10.7514 1.04169C10.7614 1.03843 10.7711 1.03483 10.7816 1.03243C10.8552 1.0194 10.9284 1.01168 11.0001 1.01168C11.0716 1.01168 11.1445 1.01905 11.2176 1.03397C11.2278 1.03603 11.238 1.03978 11.2482 1.04338Z" fill="#525252" stroke="#525252" stroke-width="0.6"/>
</svg>
